Light Display Wide — UC 2.ufo
<glyph name="A" format="1">
  <advance width="1400"/>
  <unicode hex="0041"/>
  <outline>
    <contour>
      <point x="835" y="1486" type="move" name="top"/>
    </contour>
    <contour>
      <point x="1189" y="21" type="move" name="ogonek"/>
    </contour>
    <contour>
      <point x="617" y="0" type="move" name="bottom"/>
    </contour>
    <contour>
      <point x="-103" y="36" type="line"/>
      <point x="-108" y="0" type="line"/>
      <point x="352" y="0" type="line"/>
      <point x="356" y="36" type="line"/>
      <point x="162" y="59" type="line"/>
      <point x="766" y="1293" type="line"/>
      <point x="836" y="1434" type="line"/>
      <point x="796" y="1442" type="line"/>
      <point x="818" y="1253" type="line"/>
      <point x="1050" y="66" type="line"/>
      <point x="859" y="36" type="line"/>
      <point x="850" y="0" type="line"/>
      <point x="1367" y="0" type="line"/>
      <point x="1371" y="36" type="line"/>
      <point x="1217" y="62" type="line"/>
      <point x="914" y="1498" type="line"/>
      <point x="787" y="1498" type="line"/>
      <point x="45" y="56" type="line"/>
    </contour>
    <contour>
      <point x="339" y="558" type="line"/>
      <point x="340" y="492" type="line"/>
      <point x="1032" y="492" type="line"/>
      <point x="1031" y="558" type="line"/>
    </contour>
  </outline>
</glyph>
<glyph name="B" format="1">
  <advance width="1311"/>
  <unicode hex="0042"/>
  <outline>
    <contour>
      <point x="721" y="1486" type="move" name="top"/>
    </contour>
    <contour>
      <point x="535" y="0" type="move" name="bottom"/>
    </contour>
    <contour>
      <point x="-32" y="36" type="line"/>
      <point x="-37" y="0" type="line"/>
      <point x="211" y="0" type="line" smooth="yes"/>
      <point x="283" y="0"/>
      <point x="416" y="-14"/>
      <point x="492" y="-14" type="curve"/>
      <point x="924" y="-14"/>
      <point x="1220" y="135"/>
      <point x="1215" y="458" type="curve"/>
      <point x="1213" y="650"/>
      <point x="1062" y="754"/>
      <point x="849" y="768" type="curve"/>
      <point x="1061" y="822"/>
      <point x="1212" y="976"/>
      <point x="1205" y="1190" type="curve"/>
      <point x="1200" y="1357"/>
      <point x="1078" y="1502"/>
      <point x="726" y="1502" type="curve"/>
      <point x="622" y="1502"/>
      <point x="522" y="1488"/>
      <point x="425" y="1486" type="curve"/>
      <point x="168" y="1486" type="line"/>
      <point x="163" y="1450" type="line"/>
      <point x="313" y="1420" type="line"/>
      <point x="128" y="67" type="line"/>
    </contour>
    <contour>
      <point x="524" y="37" type="curve"/>
      <point x="431" y="37"/>
      <point x="279" y="61"/>
      <point x="277" y="71" type="curve"/>
      <point x="287" y="44" type="line"/>
      <point x="384" y="749" type="line"/>
      <point x="338" y="738" type="line"/>
      <point x="442" y="740"/>
      <point x="521" y="738"/>
      <point x="665" y="738" type="curve"/>
      <point x="894" y="738"/>
      <point x="1041" y="652"/>
      <point x="1046" y="457" type="curve"/>
      <point x="1054" y="179"/>
      <point x="858" y="37"/>
    </contour>
    <contour>
      <point x="692" y="794" type="curve"/>
      <point x="561" y="795"/>
      <point x="424" y="792"/>
      <point x="347" y="794" type="curve"/>
      <point x="386" y="763" type="line"/>
      <point x="484" y="1471" type="line"/>
      <point x="453" y="1437" type="line"/>
      <point x="480" y="1439"/>
      <point x="659" y="1451"/>
      <point x="696" y="1451" type="curve"/>
      <point x="963" y="1451"/>
      <point x="1035" y="1325"/>
      <point x="1040" y="1169" type="curve"/>
      <point x="1048" y="932"/>
      <point x="869" y="792"/>
    </contour>
  </outline>
</glyph>
<glyph name="C" format="1">
  <advance width="1344"/>
  <unicode hex="0043"/>
  <outline>
    <contour>
      <point x="885" y="1486" type="move" name="top"/>
    </contour>
    <contour>
      <point x="676" y="0" type="move" name="bottom"/>
    </contour>
    <contour>
      <point x="711" y="-16" type="curve"/>
      <point x="908" y="-16"/>
      <point x="1063" y="45"/>
      <point x="1145" y="73" type="curve"/>
      <point x="1182" y="390" type="line"/>
      <point x="1114" y="390" type="line"/>
      <point x="1093" y="318"/>
      <point x="1080" y="230"/>
      <point x="1058" y="159" type="curve"/>
      <point x="1013" y="91"/>
      <point x="837" y="38"/>
      <point x="740" y="38" type="curve"/>
      <point x="384" y="38"/>
      <point x="280" y="320"/>
      <point x="268" y="633" type="curve"/>
      <point x="255" y="1007"/>
      <point x="437" y="1449"/>
      <point x="857" y="1449" type="curve"/>
      <point x="1021" y="1449"/>
      <point x="1098" y="1402"/>
      <point x="1147" y="1374" type="curve"/>
      <point x="1159" y="1090" type="line"/>
      <point x="1224" y="1090" type="line"/>
      <point x="1285" y="1442" type="line"/>
      <point x="1218" y="1452"/>
      <point x="1075" y="1502"/>
      <point x="877" y="1502" type="curve"/>
      <point x="449" y="1502"/>
      <point x="79" y="1155"/>
      <point x="99" y="614" type="curve"/>
      <point x="111" y="309"/>
      <point x="248" y="-16"/>
    </contour>
  </outline>
</glyph>
<glyph name="D" format="1">
  <advance width="1425"/>
  <unicode hex="0044"/>
  <outline>
    <contour>
      <point x="756" y="1484" type="move" name="top"/>
    </contour>
    <contour>
      <point x="569" y="0" type="move" name="bottom"/>
    </contour>
    <contour>
      <point x="-32" y="36" type="line"/>
      <point x="-37" y="0" type="line"/>
      <point x="214" y="0" type="line" smooth="yes"/>
      <point x="398" y="0"/>
      <point x="448" y="-16"/>
      <point x="608" y="-16" type="curve"/>
      <point x="1105" y="-16"/>
      <point x="1393" y="403"/>
      <point x="1386" y="899" type="curve"/>
      <point x="1377" y="1262"/>
      <point x="1196" y="1502"/>
      <point x="754" y="1502" type="curve"/>
      <point x="655" y="1502"/>
      <point x="554" y="1488"/>
      <point x="453" y="1486" type="curve"/>
      <point x="168" y="1486" type="line"/>
      <point x="163" y="1450" type="line"/>
      <point x="314" y="1420" type="line"/>
      <point x="128" y="67" type="line"/>
    </contour>
    <contour>
      <point x="605" y="37" type="curve"/>
      <point x="465" y="37"/>
      <point x="344" y="62"/>
      <point x="250" y="87" type="curve"/>
      <point x="284" y="28" type="line"/>
      <point x="482" y="1456" type="line"/>
      <point x="437" y="1411" type="line"/>
      <point x="500" y="1427"/>
      <point x="626" y="1449"/>
      <point x="720" y="1449" type="curve"/>
      <point x="1070" y="1449"/>
      <point x="1206" y="1254"/>
      <point x="1218" y="883" type="curve"/>
      <point x="1224" y="456"/>
      <point x="993" y="37"/>
    </contour>
  </outline>
</glyph>
<glyph name="E" format="1">
  <advance width="1271"/>
  <unicode hex="0045"/>
  <outline>
    <contour>
      <point x="149" y="1486" type="move" name="topleft"/>
    </contour>
    <contour>
      <point x="763" y="1486" type="move" name="top"/>
    </contour>
    <contour>
      <point x="1027" y="10" type="move" name="ogonek"/>
    </contour>
    <contour>
      <point x="558" y="0" type="move" name="bottom"/>
    </contour>
    <contour>
      <point x="-32" y="36" type="line"/>
      <point x="-37" y="0" type="line"/>
      <point x="1090" y="0" type="line"/>
      <point x="1176" y="309" type="line"/>
      <point x="1111" y="326" type="line"/>
      <point x="995" y="95" type="line"/>
      <point x="291" y="68" type="line"/>
      <point x="382" y="733" type="line"/>
      <point x="897" y="719" type="line"/>
      <point x="910" y="808" type="line"/>
      <point x="391" y="798" type="line"/>
      <point x="476" y="1420" type="line"/>
      <point x="1051" y="1400" type="line"/>
      <point x="1098" y="1183" type="line"/>
      <point x="1151" y="1183" type="line"/>
      <point x="1154" y="1486" type="line"/>
      <point x="168" y="1486" type="line"/>
      <point x="163" y="1450" type="line"/>
      <point x="314" y="1420" type="line"/>
      <point x="129" y="67" type="line"/>
    </contour>
  </outline>
</glyph>
<glyph name="F" format="1">
  <advance width="1085"/>
  <unicode hex="0046"/>
  <outline>
    <contour>
      <point x="622" y="-164" type="move" name="btm"/>
    </contour>
    <contour>
      <point x="762" y="1486" type="move" name="top"/>
    </contour>
    <contour>
      <point x="-32" y="36" type="line"/>
      <point x="-37" y="0" type="line"/>
      <point x="533" y="0" type="line"/>
      <point x="538" y="36" type="line"/>
      <point x="290" y="66" type="line"/>
      <point x="382" y="733" type="line"/>
      <point x="875" y="719" type="line"/>
      <point x="887" y="808" type="line"/>
      <point x="391" y="798" type="line"/>
      <point x="476" y="1419" type="line"/>
      <point x="1025" y="1399" type="line"/>
      <point x="1075" y="1183" type="line"/>
      <point x="1127" y="1183" type="line"/>
      <point x="1131" y="1486" type="line"/>
      <point x="168" y="1486" type="line"/>
      <point x="163" y="1450" type="line"/>
      <point x="314" y="1420" type="line"/>
      <point x="129" y="67" type="line"/>
    </contour>
  </outline>
</glyph>
<glyph name="G" format="1">
  <advance width="1466"/>
  <unicode hex="0047"/>
  <outline>
    <contour>
      <point x="879" y="1486" type="move" name="top"/>
    </contour>
    <contour>
      <point x="732" y="0" type="move" name="bottom"/>
    </contour>
    <contour>
      <point x="717" y="-16" type="curve"/>
      <point x="845" y="-16"/>
      <point x="967" y="27"/>
      <point x="1051" y="53" type="curve"/>
      <point x="1132" y="78"/>
      <point x="1171" y="88"/>
      <point x="1212" y="92" type="curve"/>
      <point x="1300" y="707" type="line"/>
      <point x="869" y="707" type="line"/>
      <point x="862" y="643" type="line"/>
      <point x="1139" y="629" type="line"/>
      <point x="1076" y="161" type="line"/>
      <point x="995" y="96"/>
      <point x="849" y="37"/>
      <point x="724" y="37" type="curve"/>
      <point x="408" y="37"/>
      <point x="277" y="320"/>
      <point x="266" y="633" type="curve"/>
      <point x="252" y="1006"/>
      <point x="435" y="1449"/>
      <point x="875" y="1449" type="curve"/>
      <point x="1075" y="1449"/>
      <point x="1151" y="1404"/>
      <point x="1212" y="1368" type="curve"/>
      <point x="1219" y="1149" type="line"/>
      <point x="1284" y="1149" type="line"/>
      <point x="1339" y="1442" type="line"/>
      <point x="1330" y="1444"/>
      <point x="1319" y="1446"/>
      <point x="1304" y="1448" type="curve"/>
      <point x="1226" y="1466"/>
      <point x="1094" y="1502"/>
      <point x="896" y="1502" type="curve"/>
      <point x="447" y="1502"/>
      <point x="77" y="1154"/>
      <point x="97" y="614" type="curve"/>
      <point x="108" y="309"/>
      <point x="246" y="-16"/>
    </contour>
  </outline>
</glyph>
<glyph name="H" format="1">
  <advance width="1505"/>
  <unicode hex="0048"/>
  <outline>
    <contour>
      <point x="883" y="1486" type="move" name="top"/>
    </contour>
    <contour>
      <point x="678" y="0" type="move" name="bottom"/>
    </contour>
    <contour>
      <point x="-32" y="36" type="line"/>
      <point x="-37" y="0" type="line"/>
      <point x="449" y="0" type="line"/>
      <point x="454" y="36" type="line"/>
      <point x="290" y="67" type="line"/>
      <point x="476" y="1420" type="line"/>
      <point x="624" y="1450" type="line"/>
      <point x="629" y="1486" type="line"/>
      <point x="168" y="1486" type="line"/>
      <point x="163" y="1450" type="line"/>
      <point x="314" y="1420" type="line"/>
      <point x="129" y="67" type="line"/>
    </contour>
    <contour>
      <point x="909" y="36" type="line"/>
      <point x="904" y="0" type="line"/>
      <point x="1391" y="0" type="line"/>
      <point x="1395" y="36" type="line"/>
      <point x="1231" y="67" type="line"/>
      <point x="1416" y="1420" type="line"/>
      <point x="1565" y="1450" type="line"/>
      <point x="1571" y="1486" type="line"/>
      <point x="1109" y="1486" type="line"/>
      <point x="1104" y="1450" type="line"/>
      <point x="1254" y="1420" type="line"/>
      <point x="1069" y="67" type="line"/>
    </contour>
    <contour>
      <point x="344" y="798" type="line"/>
      <point x="345" y="732" type="line"/>
      <point x="1233" y="732" type="line"/>
      <point x="1233" y="798" type="line"/>
    </contour>
  </outline>
</glyph>
<glyph name="I" format="1">
  <advance width="600"/>
  <unicode hex="0049"/>
  <outline>
    <contour>
      <point x="435" y="-164" type="move" name="btm"/>
    </contour>
    <contour>
      <point x="172" y="1486" type="move" name="topleft"/>
    </contour>
    <contour>
      <point x="431" y="1486" type="move" name="top"/>
    </contour>
    <contour>
      <point x="393" y="0" type="move" name="ogonek"/>
    </contour>
    <contour>
      <point x="234" y="0" type="move" name="bottom"/>
    </contour>
    <contour>
      <point x="-14" y="36" type="line"/>
      <point x="-19" y="0" type="line"/>
      <point x="468" y="0" type="line"/>
      <point x="473" y="36" type="line"/>
      <point x="309" y="67" type="line"/>
      <point x="494" y="1420" type="line"/>
      <point x="642" y="1450" type="line"/>
      <point x="647" y="1486" type="line"/>
      <point x="187" y="1486" type="line"/>
      <point x="182" y="1450" type="line"/>
      <point x="332" y="1420" type="line"/>
      <point x="147" y="67" type="line"/>
    </contour>
  </outline>
</glyph>
<glyph name="J" format="1">
  <advance width="646"/>
  <unicode hex="004A"/>
  <outline>
    <contour>
      <point x="300" y="-164" type="move" name="btm"/>
    </contour>
    <contour>
      <point x="490" y="1486" type="move" name="top"/>
    </contour>
    <contour>
      <point x="-208" y="-266" type="curve"/>
      <point x="-185" y="-309" type="line"/>
      <point x="27" y="-276"/>
      <point x="279" y="-168"/>
      <point x="334" y="71" type="curve"/>
      <point x="372" y="234"/>
      <point x="444" y="760"/>
      <point x="513" y="1415" type="curve"/>
      <point x="690" y="1450" type="line"/>
      <point x="695" y="1486" type="line"/>
      <point x="206" y="1486" type="line"/>
      <point x="201" y="1450" type="line"/>
      <point x="356" y="1419" type="line"/>
      <point x="308" y="993"/>
      <point x="256" y="401"/>
      <point x="188" y="85" type="curve"/>
      <point x="154" y="-72"/>
      <point x="32" y="-210"/>
    </contour>
  </outline>
</glyph>
<glyph name="K" format="1">
  <advance width="1413"/>
  <unicode hex="004B"/>
  <outline>
    <contour>
      <point x="853" y="1486" type="move" name="top"/>
    </contour>
    <contour>
      <point x="714" y="0" type="move" name="bottom"/>
    </contour>
    <contour>
      <point x="-32" y="36" type="line"/>
      <point x="-37" y="0" type="line"/>
      <point x="449" y="0" type="line"/>
      <point x="454" y="36" type="line"/>
      <point x="291" y="67" type="line"/>
      <point x="476" y="1420" type="line"/>
      <point x="624" y="1450" type="line"/>
      <point x="629" y="1486" type="line"/>
      <point x="168" y="1486" type="line"/>
      <point x="163" y="1450" type="line"/>
      <point x="314" y="1420" type="line"/>
      <point x="129" y="67" type="line"/>
    </contour>
    <contour>
      <point x="346" y="581" type="line"/>
      <point x="331" y="475" type="line"/>
      <point x="1266" y="1426" type="line"/>
      <point x="1414" y="1450" type="line"/>
      <point x="1421" y="1486" type="line"/>
      <point x="986" y="1486" type="line"/>
      <point x="982" y="1450" type="line"/>
      <point x="1154" y="1424" type="line"/>
    </contour>
    <contour>
      <point x="1051" y="0" type="curve"/>
      <point x="1293" y="0" type="line"/>
      <point x="1298" y="36" type="line"/>
      <point x="1172" y="68" type="line"/>
      <point x="1135" y="94"/>
      <point x="1063" y="210"/>
      <point x="946" y="396" type="curve"/>
      <point x="881" y="500"/>
      <point x="730" y="725"/>
      <point x="670" y="827" type="curve"/>
      <point x="574" y="731" type="line"/>
      <point x="629" y="639"/>
      <point x="738" y="459"/>
      <point x="805" y="349" type="curve"/>
      <point x="890" y="209"/>
      <point x="1001" y="4"/>
    </contour>
  </outline>
</glyph>
<glyph name="L" format="1">
  <advance width="1148"/>
  <unicode hex="004C"/>
  <outline>
    <contour>
      <point x="887" y="1110" type="move" name="car"/>
    </contour>
    <contour>
      <point x="400" y="1486" type="move" name="top"/>
    </contour>
    <contour>
      <point x="541" y="0" type="move" name="bottom"/>
    </contour>
    <contour>
      <point x="-32" y="36" type="line"/>
      <point x="-37" y="0" type="line"/>
      <point x="986" y="0" type="line"/>
      <point x="1085" y="423" type="line"/>
      <point x="1020" y="436" type="line"/>
      <point x="890" y="94" type="line"/>
      <point x="291" y="68" type="line"/>
      <point x="475" y="1417" type="line"/>
      <point x="647" y="1450" type="line"/>
      <point x="652" y="1486" type="line"/>
      <point x="168" y="1486" type="line"/>
      <point x="163" y="1450" type="line"/>
      <point x="314" y="1420" type="line"/>
      <point x="129" y="67" type="line"/>
    </contour>
  </outline>
</glyph>
<glyph name="M" format="1">
  <advance width="1976"/>
  <unicode hex="004D"/>
  <outline>
    <contour>
      <point x="1073" y="1486" type="move" name="top"/>
    </contour>
    <contour>
      <point x="882" y="0" type="move" name="bottom"/>
    </contour>
    <contour>
      <point x="1555" y="1486" type="line"/>
      <point x="1050" y="458" type="line"/>
      <point x="946" y="238" type="line"/>
      <point x="907" y="462" type="line"/>
      <point x="694" y="1486" type="line"/>
      <point x="300" y="1486" type="line"/>
      <point x="297" y="1451" type="line"/>
      <point x="468" y="1419" type="line"/>
      <point x="131" y="56" type="line"/>
      <point x="-28" y="36" type="line"/>
      <point x="-33" y="0" type="line"/>
      <point x="433" y="0" type="line"/>
      <point x="437" y="36" type="line"/>
      <point x="241" y="58" type="line"/>
      <point x="472" y="1037" type="line"/>
      <point x="557" y="1418" type="line"/>
      <point x="643" y="1015" type="line"/>
      <point x="832" y="0" type="line"/>
      <point x="919" y="0" type="line"/>
      <point x="1432" y="1040" type="line"/>
      <point x="1597" y="1405" type="line"/>
      <point x="1575" y="990" type="line"/>
      <point x="1556" y="67" type="line"/>
      <point x="1352" y="36" type="line"/>
      <point x="1347" y="0" type="line"/>
      <point x="1894" y="0" type="line"/>
      <point x="1897" y="36" type="line"/>
      <point x="1718" y="69" type="line"/>
      <point x="1728" y="1427" type="line"/>
      <point x="1901" y="1450" type="line"/>
      <point x="1905" y="1486" type="line"/>
    </contour>
  </outline>
</glyph>
<glyph name="N" format="1">
  <advance width="1432"/>
  <unicode hex="004E"/>
  <outline>
    <contour>
      <point x="901" y="1486" type="move" name="top"/>
    </contour>
    <contour>
      <point x="757" y="0" type="move" name="bottom"/>
    </contour>
    <contour>
      <point x="-32" y="36" type="line"/>
      <point x="-37" y="0" type="line"/>
      <point x="386" y="0" type="line"/>
      <point x="391" y="36" type="line"/>
      <point x="232" y="66" type="line"/>
      <point x="383" y="1416" type="line"/>
      <point x="355" y="1413" type="line"/>
      <point x="475" y="1104" type="line"/>
      <point x="1032" y="0" type="line"/>
      <point x="1162" y="0" type="line"/>
      <point x="1359" y="1420" type="line"/>
      <point x="1516" y="1450" type="line"/>
      <point x="1521" y="1486" type="line"/>
      <point x="1097" y="1486" type="line"/>
      <point x="1092" y="1450" type="line"/>
      <point x="1252" y="1420" type="line"/>
      <point x="1099" y="71" type="line"/>
      <point x="1135" y="72" type="line"/>
      <point x="1023" y="366" type="line"/>
      <point x="459" y="1486" type="line"/>
      <point x="168" y="1486" type="line"/>
      <point x="163" y="1450" type="line"/>
      <point x="313" y="1420" type="line"/>
      <point x="125" y="66" type="line"/>
    </contour>
  </outline>
</glyph>
<glyph name="P" format="1">
  <advance width="1278"/>
  <unicode hex="0050"/>
  <outline>
    <contour>
      <point x="239" y="-166" type="move" name="btm"/>
    </contour>
    <contour>
      <point x="767" y="1486" type="move" name="top"/>
    </contour>
    <contour>
      <point x="-32" y="36" type="line"/>
      <point x="-37" y="0" type="line"/>
      <point x="533" y="0" type="line"/>
      <point x="538" y="36" type="line"/>
      <point x="291" y="66" type="line"/>
      <point x="480" y="1446" type="line"/>
      <point x="431" y="1422" type="line"/>
      <point x="502" y="1432"/>
      <point x="640" y="1450"/>
      <point x="706" y="1450" type="curve"/>
      <point x="943" y="1450"/>
      <point x="1057" y="1348"/>
      <point x="1058" y="1109" type="curve"/>
      <point x="1059" y="790"/>
      <point x="905" y="627"/>
      <point x="584" y="627" type="curve"/>
      <point x="521" y="627"/>
      <point x="413" y="644"/>
      <point x="348" y="658" type="curve"/>
      <point x="336" y="594" type="line"/>
      <point x="400" y="585"/>
      <point x="479" y="576"/>
      <point x="575" y="576" type="curve"/>
      <point x="931" y="576"/>
      <point x="1243" y="731"/>
      <point x="1231" y="1124" type="curve"/>
      <point x="1222" y="1382"/>
      <point x="1047" y="1502"/>
      <point x="731" y="1502" type="curve"/>
      <point x="620" y="1502"/>
      <point x="527" y="1486"/>
      <point x="408" y="1486" type="curve"/>
      <point x="168" y="1486" type="line"/>
      <point x="163" y="1450" type="line"/>
      <point x="314" y="1420" type="line"/>
      <point x="129" y="67" type="line"/>
    </contour>
  </outline>
</glyph>
<glyph name="Q" format="1">
  <advance width="1414"/>
  <unicode hex="0051"/>
  <outline>
    <contour>
      <point x="964" y="-335" type="curve"/>
      <point x="1088" y="-335"/>
      <point x="1213" y="-289"/>
      <point x="1265" y="-251" type="curve"/>
      <point x="1261" y="-162" type="line"/>
      <point x="1199" y="-190"/>
      <point x="1092" y="-212"/>
      <point x="1019" y="-212" type="curve"/>
      <point x="856" y="-212"/>
      <point x="700" y="-182"/>
      <point x="696" y="-14" type="curve"/>
      <point x="655" y="-18" type="line"/>
      <point x="589" y="-231"/>
      <point x="723" y="-335"/>
    </contour>
    <contour>
      <point x="643" y="-22" type="curve"/>
      <point x="1075" y="-22"/>
      <point x="1378" y="371"/>
      <point x="1370" y="885" type="curve"/>
      <point x="1365" y="1267"/>
      <point x="1180" y="1503"/>
      <point x="825" y="1503" type="curve"/>
      <point x="400" y="1503"/>
      <point x="89" y="1124"/>
      <point x="96" y="605" type="curve"/>
      <point x="101" y="212"/>
      <point x="296" y="-22"/>
    </contour>
    <contour>
      <point x="669" y="29" type="curve"/>
      <point x="423" y="29"/>
      <point x="270" y="241"/>
      <point x="265" y="616" type="curve"/>
      <point x="258" y="1095"/>
      <point x="487" y="1452"/>
      <point x="802" y="1452" type="curve"/>
      <point x="1054" y="1452"/>
      <point x="1196" y="1255"/>
      <point x="1202" y="871" type="curve"/>
      <point x="1208" y="418"/>
      <point x="983" y="29"/>
    </contour>
  </outline>
</glyph>
<glyph name="R" format="1">
  <advance width="1360"/>
  <unicode hex="0052"/>
  <outline>
    <contour>
      <point x="717" y="1486" type="move" name="top"/>
    </contour>
    <contour>
      <point x="741" y="0" type="move" name="bottom"/>
    </contour>
    <contour>
      <point x="-32" y="36" type="line"/>
      <point x="-37" y="0" type="line"/>
      <point x="507" y="0" type="line"/>
      <point x="512" y="36" type="line"/>
      <point x="290" y="67" type="line"/>
      <point x="479" y="1445" type="line"/>
      <point x="431" y="1422" type="line"/>
      <point x="503" y="1432"/>
      <point x="640" y="1448"/>
      <point x="707" y="1448" type="curve"/>
      <point x="943" y="1448"/>
      <point x="1046" y="1351"/>
      <point x="1054" y="1160" type="curve"/>
      <point x="1062" y="974"/>
      <point x="908" y="781"/>
      <point x="655" y="767" type="curve"/>
      <point x="614" y="765"/>
      <point x="423" y="767"/>
      <point x="367" y="769" type="curve"/>
      <point x="354" y="716" type="line"/>
      <point x="416" y="714"/>
      <point x="605" y="716"/>
      <point x="619" y="716" type="curve"/>
      <point x="718" y="718"/>
      <point x="811" y="451"/>
      <point x="946" y="139" type="curve"/>
      <point x="989" y="42"/>
      <point x="1030" y="0"/>
      <point x="1064" y="0" type="curve"/>
      <point x="1266" y="0" type="line"/>
      <point x="1272" y="36" type="line"/>
      <point x="1164" y="35"/>
      <point x="1137" y="98"/>
      <point x="1040" y="332" type="curve"/>
      <point x="993" y="445"/>
      <point x="867" y="748"/>
      <point x="714" y="733" type="curve"/>
      <point x="700" y="718" type="line"/>
      <point x="1035" y="778"/>
      <point x="1230" y="947"/>
      <point x="1222" y="1170" type="curve"/>
      <point x="1215" y="1400"/>
      <point x="1059" y="1502"/>
      <point x="704" y="1502" type="curve"/>
      <point x="609" y="1502"/>
      <point x="515" y="1486"/>
      <point x="426" y="1486" type="curve"/>
      <point x="168" y="1486" type="line"/>
      <point x="163" y="1450" type="line"/>
      <point x="314" y="1420" type="line"/>
      <point x="129" y="67" type="line"/>
    </contour>
  </outline>
</glyph>
<glyph name="S" format="1">
  <advance width="1043"/>
  <unicode hex="0053"/>
  <outline>
    <contour>
      <point x="643" y="1486" type="move" name="top"/>
    </contour>
    <contour>
      <point x="438" y="0" type="move" name="bottom"/>
    </contour>
    <contour>
      <point x="411" y="-22" type="curve"/>
      <point x="715" y="-22"/>
      <point x="950" y="140"/>
      <point x="943" y="408" type="curve"/>
      <point x="938" y="618"/>
      <point x="762" y="717"/>
      <point x="599" y="813" type="curve"/>
      <point x="461" y="893"/>
      <point x="305" y="975"/>
      <point x="304" y="1161" type="curve"/>
      <point x="304" y="1346"/>
      <point x="470" y="1450"/>
      <point x="642" y="1450" type="curve"/>
      <point x="778" y="1450"/>
      <point x="848" y="1409"/>
      <point x="896" y="1375" type="curve"/>
      <point x="907" y="1167" type="line"/>
      <point x="967" y="1167" type="line"/>
      <point x="1012" y="1422" type="line"/>
      <point x="952" y="1452"/>
      <point x="803" y="1502"/>
      <point x="649" y="1502" type="curve"/>
      <point x="355" y="1502"/>
      <point x="153" y="1353"/>
      <point x="159" y="1100" type="curve"/>
      <point x="164" y="890"/>
      <point x="367" y="783"/>
      <point x="523" y="690" type="curve"/>
      <point x="655" y="611"/>
      <point x="793" y="525"/>
      <point x="789" y="345" type="curve"/>
      <point x="783" y="113"/>
      <point x="576" y="30"/>
      <point x="417" y="30" type="curve"/>
      <point x="288" y="30"/>
      <point x="195" y="75"/>
      <point x="131" y="113" type="curve"/>
      <point x="120" y="336" type="line"/>
      <point x="52" y="336" type="line"/>
      <point x="6" y="64" type="line"/>
      <point x="59" y="28"/>
      <point x="248" y="-22"/>
    </contour>
  </outline>
</glyph>
<glyph name="T" format="1">
  <advance width="1384"/>
  <unicode hex="0054"/>
  <outline>
    <contour>
      <point x="797" y="1486" type="move" name="top"/>
    </contour>
    <contour>
      <point x="607" y="0" type="move" name="bottom"/>
    </contour>
    <contour>
      <point x="1385" y="1486" type="line"/>
      <point x="197" y="1486" type="line"/>
      <point x="120" y="1078" type="line"/>
      <point x="183" y="1080" type="line"/>
      <point x="292" y="1404" type="line"/>
      <point x="715" y="1420" type="line"/>
      <point x="529" y="66" type="line"/>
      <point x="305" y="36" type="line"/>
      <point x="300" y="0" type="line"/>
      <point x="913" y="0" type="line"/>
      <point x="918" y="36" type="line"/>
      <point x="691" y="66" type="line"/>
      <point x="877" y="1420" type="line"/>
      <point x="1268" y="1404" type="line"/>
      <point x="1293" y="1076" type="line"/>
      <point x="1354" y="1078" type="line"/>
    </contour>
  </outline>
</glyph>
<glyph name="U" format="1">
  <advance width="1466"/>
  <unicode hex="0055"/>
  <outline>
    <contour>
      <point x="852" y="1486" type="move" name="top"/>
    </contour>
    <contour>
      <point x="862" y="20" type="move" name="ogonek"/>
    </contour>
    <contour>
      <point x="1341" y="1486" type="move" name="topright"/>
    </contour>
    <contour>
      <point x="673" y="0" type="move" name="bottom"/>
    </contour>
    <contour>
      <point x="1278" y="612" type="curve"/>
      <point x="1376" y="1421" type="line"/>
      <point x="1526" y="1450" type="line"/>
      <point x="1532" y="1486" type="line"/>
      <point x="1126" y="1486" type="line"/>
      <point x="1121" y="1450" type="line"/>
      <point x="1281" y="1420" type="line"/>
      <point x="1199" y="612" type="line" smooth="yes"/>
      <point x="1158" y="215"/>
      <point x="955" y="53"/>
      <point x="694" y="53" type="curve"/>
      <point x="431" y="53"/>
      <point x="335" y="212"/>
      <point x="332" y="440" type="curve"/>
      <point x="331" y="488"/>
      <point x="334" y="539"/>
      <point x="341" y="592" type="curve"/>
      <point x="453" y="1420" type="line"/>
      <point x="613" y="1450" type="line"/>
      <point x="618" y="1486" type="line"/>
      <point x="148" y="1486" type="line"/>
      <point x="143" y="1450" type="line"/>
      <point x="288" y="1421" type="line"/>
      <point x="175" y="579" type="line" smooth="yes"/>
      <point x="169" y="535"/>
      <point x="167" y="493"/>
      <point x="168" y="452" type="curve"/>
      <point x="172" y="164"/>
      <point x="328" y="-20"/>
      <point x="672" y="-20" type="curve"/>
      <point x="1013" y="-20"/>
      <point x="1224" y="170"/>
    </contour>
  </outline>
</glyph>
<glyph name="V" format="1">
  <advance width="1303"/>
  <unicode hex="0056"/>
  <outline>
    <contour>
      <point x="833" y="1660" type="move" name="top"/>
    </contour>
    <contour>
      <point x="189" y="1424" type="line"/>
      <point x="492" y="-20" type="line"/>
      <point x="620" y="-12" type="line"/>
      <point x="1332" y="1429" type="line"/>
      <point x="1458" y="1450" type="line"/>
      <point x="1463" y="1486" type="line"/>
      <point x="1029" y="1486" type="line"/>
      <point x="1026" y="1450" type="line"/>
      <point x="1222" y="1426" type="line"/>
      <point x="680" y="283" type="line"/>
      <point x="571" y="53" type="line"/>
      <point x="611" y="45" type="line"/>
      <point x="587" y="229" type="line"/>
      <point x="353" y="1420" type="line"/>
      <point x="563" y="1450" type="line"/>
      <point x="571" y="1486" type="line"/>
      <point x="73" y="1486" type="line"/>
      <point x="69" y="1450" type="line"/>
    </contour>
  </outline>
</glyph>
<glyph name="W" format="1">
  <advance width="1948"/>
  <unicode hex="0057"/>
  <outline>
    <contour>
      <point x="1110" y="1486" type="move" name="top"/>
    </contour>
    <contour>
      <point x="909" y="0" type="move" name="bottom"/>
    </contour>
    <contour>
      <point x="969" y="1424" type="line"/>
      <point x="1195" y="-20" type="line"/>
      <point x="1322" y="-11" type="line"/>
      <point x="1987" y="1429" type="line"/>
      <point x="2113" y="1450" type="line"/>
      <point x="2118" y="1486" type="line"/>
      <point x="1672" y="1486" type="line"/>
      <point x="1669" y="1450" type="line"/>
      <point x="1877" y="1426" type="line"/>
      <point x="1370" y="271" type="line"/>
      <point x="1274" y="53" type="line"/>
      <point x="1309" y="44" type="line"/>
      <point x="1275" y="334" type="line"/>
      <point x="1133" y="1420" type="line"/>
      <point x="1308" y="1450" type="line"/>
      <point x="1317" y="1486" type="line"/>
      <point x="818" y="1486" type="line"/>
      <point x="815" y="1450" type="line"/>
    </contour>
    <contour>
      <point x="184" y="1424" type="line"/>
      <point x="440" y="-20" type="line"/>
      <point x="568" y="-11" type="line"/>
      <point x="1138" y="1248" type="line"/>
      <point x="1037" y="1246" type="line"/>
      <point x="600" y="247" type="line"/>
      <point x="514" y="53" type="line"/>
      <point x="559" y="44" type="line"/>
      <point x="521" y="334" type="line"/>
      <point x="348" y="1420" type="line"/>
      <point x="551" y="1450" type="line"/>
      <point x="555" y="1486" type="line"/>
      <point x="68" y="1486" type="line"/>
      <point x="65" y="1450" type="line"/>
    </contour>
  </outline>
</glyph>
<glyph name="X" format="1">
  <advance width="1345"/>
  <unicode hex="0058"/>
  <outline>
    <contour>
      <point x="817" y="1660" type="move" name="top"/>
    </contour>
    <contour>
      <point x="597" y="0" type="move" name="bottom"/>
    </contour>
    <contour>
      <point x="-62" y="36" type="line"/>
      <point x="-65" y="0" type="line"/>
      <point x="384" y="0" type="line"/>
      <point x="388" y="36" type="line"/>
      <point x="210" y="64" type="line"/>
      <point x="695" y="717" type="line"/>
      <point x="726" y="729" type="line"/>
      <point x="1292" y="1425" type="line"/>
      <point x="1449" y="1450" type="line"/>
      <point x="1452" y="1486" type="line"/>
      <point x="1003" y="1486" type="line"/>
      <point x="998" y="1450" type="line"/>
      <point x="1172" y="1422" type="line"/>
      <point x="713" y="819" type="line"/>
      <point x="678" y="808" type="line"/>
      <point x="87" y="61" type="line"/>
    </contour>
    <contour>
      <point x="753" y="36" type="line"/>
      <point x="748" y="0" type="line"/>
      <point x="1271" y="0" type="line"/>
      <point x="1276" y="36" type="line"/>
      <point x="1120" y="64" type="line"/>
      <point x="759" y="769" type="line"/>
      <point x="739" y="810" type="line"/>
      <point x="448" y="1425" type="line"/>
      <point x="632" y="1450" type="line"/>
      <point x="637" y="1486" type="line"/>
      <point x="125" y="1486" type="line"/>
      <point x="120" y="1450" type="line"/>
      <point x="270" y="1422" type="line"/>
      <point x="630" y="710" type="line"/>
      <point x="639" y="691" type="line"/>
      <point x="933" y="61" type="line"/>
    </contour>
  </outline>
</glyph>
<glyph name="Y" format="1">
  <advance width="1206"/>
  <unicode hex="0059"/>
  <outline>
    <contour>
      <point x="530" y="-166" type="move" name="btm"/>
    </contour>
    <contour>
      <point x="129" y="1486" type="move" name="topleft"/>
    </contour>
    <contour>
      <point x="725" y="1486" type="move" name="top"/>
    </contour>
    <contour>
      <point x="556" y="0" type="move" name="bottom"/>
    </contour>
    <contour>
      <point x="250" y="36" type="line"/>
      <point x="245" y="0" type="line"/>
      <point x="858" y="0" type="line"/>
      <point x="863" y="36" type="line"/>
      <point x="634" y="68" type="line"/>
      <point x="713" y="648" type="line"/>
      <point x="642" y="508" type="line"/>
      <point x="1241" y="1433" type="line"/>
      <point x="1365" y="1450" type="line"/>
      <point x="1369" y="1486" type="line"/>
      <point x="966" y="1486" type="line"/>
      <point x="961" y="1450" type="line"/>
      <point x="1127" y="1431" type="line"/>
      <point x="736" y="803" type="line"/>
      <point x="621" y="612" type="line"/>
      <point x="675" y="600" type="line"/>
      <point x="606" y="803" type="line"/>
      <point x="353" y="1431" type="line"/>
      <point x="538" y="1450" type="line"/>
      <point x="543" y="1486" type="line"/>
      <point x="65" y="1486" type="line"/>
      <point x="59" y="1450" type="line"/>
      <point x="179" y="1431" type="line"/>
      <point x="576" y="502" type="line"/>
      <point x="549" y="639" type="line"/>
      <point x="472" y="66" type="line"/>
    </contour>
  </outline>
</glyph>
<glyph name="Z" format="1">
  <advance width="1278"/>
  <unicode hex="005A"/>
  <outline>
    <contour>
      <point x="749" y="1486" type="move" name="top"/>
    </contour>
    <contour>
      <point x="581" y="0" type="move" name="bottom"/>
    </contour>
    <contour>
      <point x="1271" y="1486" type="line"/>
      <point x="265" y="1486" type="line"/>
      <point x="208" y="1151" type="line"/>
      <point x="263" y="1142" type="line"/>
      <point x="379" y="1406" type="line"/>
      <point x="1101" y="1421" type="line"/>
      <point x="892" y="1189" type="line"/>
      <point x="-28" y="33" type="line"/>
      <point x="-9" y="0" type="line"/>
      <point x="1079" y="0" type="line"/>
      <point x="1173" y="352" type="line"/>
      <point x="1107" y="371" type="line"/>
      <point x="985" y="108" type="line"/>
      <point x="154" y="66" type="line"/>
      <point x="341" y="269" type="line"/>
      <point x="1285" y="1455" type="line"/>
    </contour>
  </outline>
</glyph>
<glyph name="AE" format="1">
  <advance width="2019"/>
  <unicode hex="00C6"/>
  <outline>
    <contour>
      <point x="1236" y="1486" type="move" name="top"/>
    </contour>
    <contour>
      <point x="715" y="36" type="line"/>
      <point x="710" y="0" type="line"/>
      <point x="1837" y="0" type="line"/>
      <point x="1924" y="309" type="line"/>
      <point x="1858" y="326" type="line"/>
      <point x="1742" y="95" type="line"/>
      <point x="1039" y="69" type="line"/>
      <point x="1130" y="733" type="line"/>
      <point x="1644" y="718" type="line"/>
      <point x="1658" y="810" type="line"/>
      <point x="1139" y="799" type="line"/>
      <point x="1221" y="1420" type="line"/>
      <point x="1799" y="1400" type="line"/>
      <point x="1845" y="1183" type="line"/>
      <point x="1898" y="1183" type="line"/>
      <point x="1900" y="1486" type="line"/>
      <point x="585" y="1486" type="line"/>
      <point x="581" y="1450" type="line"/>
      <point x="822" y="1421" type="line"/>
      <point x="26" y="58" type="line"/>
      <point x="-118" y="36" type="line"/>
      <point x="-123" y="0" type="line"/>
      <point x="365" y="0" type="line"/>
      <point x="369" y="36" type="line"/>
      <point x="191" y="59" type="line"/>
      <point x="403" y="481" type="line"/>
      <point x="934" y="481" type="line"/>
      <point x="876" y="67" type="line"/>
    </contour>
    <contour>
      <point x="435" y="547" type="line"/>
      <point x="909" y="1421" type="line"/>
      <point x="1061" y="1421" type="line"/>
      <point x="942" y="547" type="line"/>
    </contour>
  </outline>
</glyph>
<glyph name="Eth" format="1">
  <advance width="1439"/>
  <unicode hex="00D0"/>
  <outline>
    <contour>
      <point x="87" y="802" type="line"/>
      <point x="78" y="732" type="line"/>
      <point x="955" y="732" type="line"/>
      <point x="964" y="802" type="line"/>
    </contour>
    <contour>
      <point x="-18" y="36" type="line"/>
      <point x="-23" y="0" type="line"/>
      <point x="228" y="0" type="line" smooth="yes"/>
      <point x="412" y="0"/>
      <point x="462" y="-16"/>
      <point x="622" y="-16" type="curve"/>
      <point x="1118" y="-16"/>
      <point x="1407" y="403"/>
      <point x="1400" y="899" type="curve"/>
      <point x="1390" y="1262"/>
      <point x="1210" y="1502"/>
      <point x="768" y="1502" type="curve"/>
      <point x="669" y="1502"/>
      <point x="567" y="1488"/>
      <point x="467" y="1486" type="curve"/>
      <point x="182" y="1486" type="line"/>
      <point x="177" y="1450" type="line"/>
      <point x="328" y="1420" type="line"/>
      <point x="142" y="67" type="line"/>
    </contour>
    <contour>
      <point x="619" y="37" type="curve"/>
      <point x="479" y="37"/>
      <point x="358" y="62"/>
      <point x="264" y="87" type="curve"/>
      <point x="298" y="28" type="line"/>
      <point x="496" y="1456" type="line"/>
      <point x="451" y="1411" type="line"/>
      <point x="514" y="1427"/>
      <point x="640" y="1449"/>
      <point x="734" y="1449" type="curve"/>
      <point x="1084" y="1449"/>
      <point x="1220" y="1254"/>
      <point x="1232" y="883" type="curve"/>
      <point x="1238" y="456"/>
      <point x="1007" y="37"/>
    </contour>
  </outline>
</glyph>
<glyph name="Oslash" format="1">
  <advance width="1414"/>
  <unicode hex="00D8"/>
  <outline>
    <contour>
      <point x="827" y="1484" type="move" name="top"/>
    </contour>
    <contour>
      <point x="130" y="-127" type="line"/>
      <point x="161" y="-249" type="line"/>
      <point x="1325" y="1612" type="line"/>
      <point x="1294" y="1734" type="line"/>
    </contour>
    <contour>
      <point x="643" y="-22" type="curve"/>
      <point x="1075" y="-22"/>
      <point x="1378" y="371"/>
      <point x="1370" y="885" type="curve"/>
      <point x="1365" y="1267"/>
      <point x="1180" y="1503"/>
      <point x="825" y="1503" type="curve"/>
      <point x="400" y="1503"/>
      <point x="89" y="1124"/>
      <point x="96" y="605" type="curve"/>
      <point x="101" y="212"/>
      <point x="296" y="-22"/>
    </contour>
    <contour>
      <point x="669" y="29" type="curve"/>
      <point x="423" y="29"/>
      <point x="270" y="241"/>
      <point x="265" y="616" type="curve"/>
      <point x="258" y="1095"/>
      <point x="487" y="1452"/>
      <point x="802" y="1452" type="curve"/>
      <point x="1054" y="1452"/>
      <point x="1196" y="1255"/>
      <point x="1202" y="871" type="curve"/>
      <point x="1208" y="418"/>
      <point x="983" y="29"/>
    </contour>
  </outline>
</glyph>
<glyph name="Thorn" format="1">
  <advance width="1211"/>
  <unicode hex="00DE"/>
  <outline>
    <contour>
      <point x="-32" y="36" type="line"/>
      <point x="-37" y="0" type="line"/>
      <point x="447" y="0" type="line"/>
      <point x="452" y="36" type="line"/>
      <point x="290" y="67" type="line"/>
      <point x="328" y="342" type="line"/>
      <point x="383" y="336"/>
      <point x="449" y="331"/>
      <point x="526" y="331" type="curve"/>
      <point x="867" y="331"/>
      <point x="1148" y="503"/>
      <point x="1144" y="798" type="curve"/>
      <point x="1141" y="1044"/>
      <point x="983" y="1153"/>
      <point x="651" y="1153" type="curve"/>
      <point x="564" y="1153"/>
      <point x="520" y="1150"/>
      <point x="438" y="1140" type="curve"/>
      <point x="476" y="1420" type="line"/>
      <point x="624" y="1450" type="line"/>
      <point x="629" y="1486" type="line"/>
      <point x="168" y="1486" type="line"/>
      <point x="163" y="1450" type="line"/>
      <point x="314" y="1420" type="line"/>
      <point x="129" y="67" type="line"/>
    </contour>
    <contour>
      <point x="336" y="402" type="curve"/>
      <point x="430" y="1089" type="line"/>
      <point x="489" y="1097"/>
      <point x="558" y="1103"/>
      <point x="623" y="1103" type="curve"/>
      <point x="868" y="1103"/>
      <point x="965" y="996"/>
      <point x="968" y="829" type="curve"/>
      <point x="971" y="562"/>
      <point x="829" y="385"/>
      <point x="531" y="385" type="curve"/>
      <point x="480" y="385"/>
      <point x="396" y="393"/>
    </contour>
  </outline>
</glyph>
<glyph name="Lslash" format="1">
  <advance width="1204"/>
  <unicode hex="0141"/>
  <outline>
    <contour>
      <point x="40" y="698" type="line"/>
      <point x="67" y="637" type="line"/>
      <point x="922" y="968" type="line"/>
      <point x="895" y="1033" type="line"/>
    </contour>
    <contour>
      <point x="24" y="36" type="line"/>
      <point x="19" y="0" type="line"/>
      <point x="1042" y="0" type="line"/>
      <point x="1141" y="423" type="line"/>
      <point x="1077" y="436" type="line"/>
      <point x="946" y="94" type="line"/>
      <point x="347" y="68" type="line"/>
      <point x="531" y="1417" type="line"/>
      <point x="703" y="1450" type="line"/>
      <point x="708" y="1486" type="line"/>
      <point x="224" y="1486" type="line"/>
      <point x="219" y="1450" type="line"/>
      <point x="370" y="1420" type="line"/>
      <point x="185" y="67" type="line"/>
    </contour>
  </outline>
</glyph>
<glyph name="Eng" format="1">
  <advance width="1425"/>
  <unicode hex="014A"/>
  <outline>
    <contour>
      <point x="606" y="-395" type="curve"/>
      <point x="630" y="-439" type="line"/>
      <point x="846" y="-406"/>
      <point x="1125" y="-270"/>
      <point x="1167" y="33" type="curve"/>
      <point x="1359" y="1420" type="line"/>
      <point x="1516" y="1450" type="line"/>
      <point x="1521" y="1486" type="line"/>
      <point x="1097" y="1486" type="line"/>
      <point x="1093" y="1450" type="line"/>
      <point x="1252" y="1420" type="line"/>
      <point x="1107" y="142" type="line"/>
      <point x="1019" y="367" type="line"/>
      <point x="456" y="1486" type="line"/>
      <point x="168" y="1486" type="line"/>
      <point x="163" y="1450" type="line"/>
      <point x="313" y="1420" type="line"/>
      <point x="125" y="66" type="line"/>
      <point x="-31" y="36" type="line"/>
      <point x="-37" y="0" type="line"/>
      <point x="386" y="0" type="line"/>
      <point x="391" y="36" type="line"/>
      <point x="232" y="66" type="line"/>
      <point x="377" y="1359" type="line"/>
      <point x="475" y="1111" type="line"/>
      <point x="1032" y="0" type="line"/>
      <point x="1001" y="-179"/>
      <point x="850" y="-339"/>
    </contour>
  </outline>
</glyph>
<glyph name="OE" format="1">
  <advance width="2246"/>
  <unicode hex="0152"/>
  <outline>
    <contour>
      <point x="646" y="-22" type="curve"/>
      <point x="859" y="-22"/>
      <point x="1046" y="84"/>
      <point x="1173" y="256" type="curve"/>
      <point x="1139" y="0" type="line"/>
      <point x="2065" y="0" type="line"/>
      <point x="2151" y="309" type="line"/>
      <point x="2086" y="326" type="line"/>
      <point x="1970" y="95" type="line"/>
      <point x="1310" y="68" type="line"/>
      <point x="1402" y="733" type="line"/>
      <point x="1872" y="719" type="line"/>
      <point x="1885" y="808" type="line"/>
      <point x="1411" y="798" type="line"/>
      <point x="1495" y="1420" type="line"/>
      <point x="2025" y="1400" type="line"/>
      <point x="2073" y="1183" type="line"/>
      <point x="2125" y="1183" type="line"/>
      <point x="2129" y="1486" type="line"/>
      <point x="1342" y="1486" type="line"/>
      <point x="1300" y="1181" type="line"/>
      <point x="1223" y="1384"/>
      <point x="1065" y="1503"/>
      <point x="828" y="1503" type="curve"/>
      <point x="403" y="1503"/>
      <point x="83" y="1124"/>
      <point x="98" y="605" type="curve"/>
      <point x="110" y="212"/>
      <point x="298" y="-22"/>
    </contour>
    <contour>
      <point x="672" y="29" type="curve"/>
      <point x="425" y="29"/>
      <point x="277" y="241"/>
      <point x="267" y="616" type="curve"/>
      <point x="255" y="1095"/>
      <point x="489" y="1452"/>
      <point x="804" y="1452" type="curve"/>
      <point x="1056" y="1452"/>
      <point x="1191" y="1258"/>
      <point x="1203" y="871" type="curve"/>
      <point x="1217" y="418"/>
      <point x="986" y="29"/>
    </contour>
  </outline>
</glyph>
<glyph name="Ohorn" format="1">
  <advance width="1491"/>
  <unicode hex="01A0"/>
  <outline>
    <contour>
      <point x="828" y="1486" type="move" name="top"/>
    </contour>
    <contour>
      <point x="647" y="0" type="move" name="bottom"/>
    </contour>
    <contour>
      <point x="1105" y="1407" type="curve"/>
      <point x="1150" y="1333" type="line"/>
      <point x="1476" y="1347"/>
      <point x="1562" y="1453"/>
      <point x="1559" y="1636" type="curve"/>
      <point x="1559" y="1687"/>
      <point x="1547" y="1714"/>
      <point x="1540" y="1730" type="curve"/>
      <point x="1395" y="1730" type="line"/>
      <point x="1396" y="1722"/>
      <point x="1397" y="1710"/>
      <point x="1398" y="1697" type="curve"/>
      <point x="1400" y="1514"/>
      <point x="1369" y="1407"/>
    </contour>
    <contour>
      <point x="643" y="-22" type="curve"/>
      <point x="1075" y="-22"/>
      <point x="1378" y="371"/>
      <point x="1370" y="885" type="curve"/>
      <point x="1365" y="1267"/>
      <point x="1180" y="1503"/>
      <point x="825" y="1503" type="curve"/>
      <point x="400" y="1503"/>
      <point x="89" y="1124"/>
      <point x="96" y="605" type="curve"/>
      <point x="101" y="212"/>
      <point x="296" y="-22"/>
    </contour>
    <contour>
      <point x="669" y="29" type="curve"/>
      <point x="423" y="29"/>
      <point x="270" y="241"/>
      <point x="265" y="616" type="curve"/>
      <point x="258" y="1095"/>
      <point x="487" y="1452"/>
      <point x="802" y="1452" type="curve"/>
      <point x="1054" y="1452"/>
      <point x="1196" y="1255"/>
      <point x="1202" y="871" type="curve"/>
      <point x="1208" y="418"/>
      <point x="983" y="29"/>
    </contour>
  </outline>
</glyph>
<glyph name="Uhorn" format="1">
  <advance width="1555"/>
  <unicode hex="01AF"/>
  <outline>
    <contour>
      <point x="857" y="1486" type="move" name="top"/>
    </contour>
    <contour>
      <point x="669" y="0" type="move" name="bottom"/>
    </contour>
    <contour>
      <point x="1278" y="612" type="curve"/>
      <point x="1376" y="1421" type="line"/>
      <point x="1526" y="1450" type="line"/>
      <point x="1532" y="1486" type="line"/>
      <point x="1126" y="1486" type="line"/>
      <point x="1121" y="1450" type="line"/>
      <point x="1281" y="1420" type="line"/>
      <point x="1199" y="612" type="line" smooth="yes"/>
      <point x="1158" y="215"/>
      <point x="955" y="53"/>
      <point x="694" y="53" type="curve"/>
      <point x="431" y="53"/>
      <point x="335" y="212"/>
      <point x="332" y="440" type="curve"/>
      <point x="331" y="488"/>
      <point x="334" y="539"/>
      <point x="341" y="592" type="curve"/>
      <point x="453" y="1420" type="line"/>
      <point x="613" y="1450" type="line"/>
      <point x="618" y="1486" type="line"/>
      <point x="148" y="1486" type="line"/>
      <point x="143" y="1450" type="line"/>
      <point x="288" y="1421" type="line"/>
      <point x="175" y="579" type="line" smooth="yes"/>
      <point x="169" y="535"/>
      <point x="167" y="493"/>
      <point x="168" y="452" type="curve"/>
      <point x="172" y="164"/>
      <point x="328" y="-20"/>
      <point x="672" y="-20" type="curve"/>
      <point x="1013" y="-20"/>
      <point x="1224" y="170"/>
    </contour>
    <contour>
      <point x="1293" y="1474" type="curve"/>
      <point x="1352" y="1397" type="line"/>
      <point x="1620" y="1411"/>
      <point x="1718" y="1530"/>
      <point x="1716" y="1654" type="curve"/>
      <point x="1716" y="1690"/>
      <point x="1705" y="1725"/>
      <point x="1707" y="1742" type="curve"/>
      <point x="1549" y="1745" type="line"/>
      <point x="1540" y="1737"/>
      <point x="1529" y="1723"/>
      <point x="1530" y="1698" type="curve"/>
      <point x="1531" y="1592"/>
      <point x="1500" y="1475"/>
    </contour>
  </outline>
</glyph>
<glyph name="Ezh" format="1">
  <advance width="1275"/>
  <outline>
    <contour>
      <point x="763" y="1486" type="move" name="top"/>
    </contour>
    <contour>
      <point x="503" y="-16" type="curve"/>
      <point x="886" y="-16"/>
      <point x="1166" y="150"/>
      <point x="1162" y="461" type="curve"/>
      <point x="1160" y="625"/>
      <point x="1058" y="835"/>
      <point x="792" y="835" type="curve"/>
      <point x="783" y="808" type="line"/>
      <point x="1298" y="1450" type="line"/>
      <point x="1270" y="1486" type="line"/>
      <point x="269" y="1486" type="line"/>
      <point x="211" y="1149" type="line"/>
      <point x="267" y="1141" type="line"/>
      <point x="382" y="1406" type="line"/>
      <point x="1107" y="1424" type="line"/>
      <point x="901" y="1191" type="line"/>
      <point x="597" y="811" type="line"/>
      <point x="628" y="778" type="line"/>
      <point x="648" y="791"/>
      <point x="694" y="791"/>
      <point x="726" y="791" type="curve"/>
      <point x="944" y="789"/>
      <point x="991" y="611"/>
      <point x="994" y="458" type="curve"/>
      <point x="997" y="194"/>
      <point x="829" y="37"/>
      <point x="506" y="36" type="curve"/>
      <point x="362" y="37"/>
      <point x="288" y="73"/>
      <point x="237" y="96" type="curve"/>
      <point x="227" y="389" type="line"/>
      <point x="140" y="389" type="line"/>
      <point x="80" y="51" type="line"/>
      <point x="132" y="52"/>
      <point x="306" y="-16"/>
    </contour>
  </outline>
</glyph>
<glyph name="Germandbls" format="1">
  <advance width="1469"/>
  <outline>
    <contour>
      <point x="895" y="-21" type="curve"/>
      <point x="1182" y="-21"/>
      <point x="1401" y="182"/>
      <point x="1397" y="443" type="curve"/>
      <point x="1394" y="707"/>
      <point x="1184" y="841"/>
      <point x="940" y="898" type="curve"/>
      <point x="1300" y="1351" type="line"/>
      <point x="1309" y="1377" type="line"/>
      <point x="1223" y="1437"/>
      <point x="1109" y="1493"/>
      <point x="868" y="1493" type="curve"/>
      <point x="503" y="1493"/>
      <point x="282" y="1224"/>
      <point x="236" y="893" type="curve"/>
      <point x="124" y="68" type="line"/>
      <point x="-37" y="36" type="line"/>
      <point x="-42" y="0" type="line"/>
      <point x="277" y="0" type="line"/>
      <point x="418" y="1029" type="line" smooth="yes"/>
      <point x="460" y="1337"/>
      <point x="575" y="1403"/>
      <point x="824" y="1401" type="curve"/>
      <point x="1019" y="1399"/>
      <point x="1132" y="1314"/>
      <point x="1158" y="1289" type="curve"/>
      <point x="797" y="839" type="line"/>
      <point x="793" y="813" type="line"/>
      <point x="1002" y="791"/>
      <point x="1219" y="620"/>
      <point x="1222" y="398" type="curve"/>
      <point x="1224" y="233"/>
      <point x="1132" y="32"/>
      <point x="913" y="32" type="curve"/>
      <point x="801" y="32"/>
      <point x="701" y="81"/>
      <point x="671" y="119" type="curve"/>
      <point x="650" y="309" type="line"/>
      <point x="549" y="309" type="line"/>
      <point x="508" y="61" type="line"/>
      <point x="565" y="55"/>
      <point x="687" y="-21"/>
    </contour>
  </outline>
</glyph>
<glyph name="Schwa" format="1">
  <advance width="1393"/>
  <outline>
    <contour>
      <point x="623" y="-21" type="curve"/>
      <point x="1044" y="-21"/>
      <point x="1357" y="348"/>
      <point x="1350" y="884" type="curve"/>
      <point x="1345" y="1262"/>
      <point x="1156" y="1504"/>
      <point x="816" y="1504" type="curve"/>
      <point x="515" y="1504"/>
      <point x="392" y="1432"/>
      <point x="272" y="1426" type="curve"/>
      <point x="225" y="1143" type="line"/>
      <point x="314" y="1143" type="line"/>
      <point x="388" y="1354" type="line"/>
      <point x="449" y="1398"/>
      <point x="583" y="1452"/>
      <point x="782" y="1452" type="curve"/>
      <point x="1025" y="1452"/>
      <point x="1175" y="1257"/>
      <point x="1180" y="893" type="curve"/>
      <point x="1181" y="845"/>
      <point x="1179" y="799"/>
      <point x="1175" y="754" type="curve"/>
      <point x="158" y="753" type="line"/>
      <point x="135" y="697"/>
      <point x="119" y="584"/>
      <point x="121" y="470" type="curve"/>
      <point x="125" y="158"/>
      <point x="334" y="-21"/>
    </contour>
    <contour>
      <point x="632" y="29" type="curve"/>
      <point x="403" y="29"/>
      <point x="287" y="254"/>
      <point x="284" y="444" type="curve"/>
      <point x="283" y="524"/>
      <point x="297" y="618"/>
      <point x="313" y="687" type="curve"/>
      <point x="1173" y="688" type="line"/>
      <point x="1114" y="294"/>
      <point x="924" y="29"/>
    </contour>
  </outline>
</glyph>
